# xmcd CD database file
#
# Track frame offsets:
#	150
#	23428
#	55579
#	73678
#	96144
#	118158
#	132751
#	165015
#	173507
#	185209
#	200413
#	212383
#	227158
#	245964
#	259439
#	275361
#
# Disc length: 3892 seconds
#
# Revision: 0
# Processed by: cddbd v1.5.1PL0 Copyright (c) Steve Scherf et al.
# Submitted via: CDex 1.51
#
DISCID=dd0f3210
DTITLE=Various Artist - routes of rhythm vol 2
DYEAR=2000
DGENRE=Rhythmic Soul
TTITLE0=rosario de marco - mardesar
TTITLE1=rosario de marco - if you wish 
TTITLE2=rosario de marco - kuon ganjo
TTITLE3=x.capaz - tshongola
TTITLE4=natalia mann - kaulana kawaihae
TTITLE5=pedro diaz - mi abuela bailo la samba
TTITLE6=x.capaz - takes time 
TTITLE7=ellen hundley and bill desailly - tikiminiki
TTITLE8=leon neon sallman and baroqquette - ode to my parents 
TTITLE9=natalia mann - lei andi
TTITLE10=pedro diaz, ferreyra and juan pallero - por una cabeza 
TTITLE11=x capaz - inkuloleko
TTITLE12=natalia mann - malie tagifa 
TTITLE13=pedro diaz, ferreyra and juan pallero - nada saben di ti 
TTITLE14=x capaz - things that matter
TTITLE15=ellen hundley and bill desailly - mesa stis ghis tin angalia 
EXTD=YEAR: 2000
EXTT0=
EXTT1=
EXTT2=
EXTT3=
EXTT4=
EXTT5=
EXTT6=
EXTT7=
EXTT8=
EXTT9=
EXTT10=
EXTT11=
EXTT12=
EXTT13=
EXTT14=
EXTT15=
PLAYORDER=
